<svg width="316" height="400" viewBox="0 0 316 400" fill="none" xmlns="http://www.w3.org/2000/svg">
<path d="M229.3 297.901C229.3 299.001 229.3 300.201 229.3 301.301C220.1 299.701 211.5 296.501 203.9 291.801C184.3 280.001 170.7 259.401 168.5 235.401C168.3 233.201 168.2 230.901 168.2 228.601C168.2 225.901 168.3 223.301 168.6 220.801C169.6 211.501 172.3 202.801 176.4 194.801C185.7 201.401 194 209.301 201.2 218.201C218.7 240.101 229.3 267.801 229.3 297.901Z" fill="#191717"/>
<path d="M203.801 291.9C184.201 280.1 170.601 259.5 168.401 235.5C168.201 233.3 168.101 231 168.101 228.7C168.101 226 168.201 223.4 168.501 220.9C172.301 224.1 175.801 227.6 179.001 231.3C193.301 247.7 202.401 268.7 203.801 291.9Z" fill="#191717"/>
<path d="M245.1 155.1C244 155 242.9 155 241.7 155C213.2 155 188.5 171.2 176.2 194.9C172.1 202.8 169.4 211.6 168.4 220.9C168.1 223.5 168 226.1 168 228.7C168 231 168.1 233.3 168.3 235.5C170.5 259.4 184.1 280.1 203.7 291.9C211.4 296.5 220 299.8 229.1 301.4C233.2 302.1 237.3 302.5 241.6 302.5C282.3 302.5 315.3 269.5 315.3 228.8C315.5 189.2 284.3 156.9 245.1 155.1Z" fill="url(#paint0_radial_1421_4749)"/>
<path d="M144.8 241C144.3 237 144 232.9 144 228.7C144 221.1 144.9 213.6 146.5 206.5C133.2 200 118.2 196.4 102.4 196.4C82.8004 196.4 64.6004 201.9 49.1004 211.5C20.2004 229.4 0.900391 261.4 0.900391 297.8C0.900391 353.8 46.3004 399.3 102.4 399.3C151.6 399.3 192.6 364.3 201.9 317.8C171.5 304.3 149.2 275.4 144.8 241Z" fill="url(#paint1_radial_1421_4749)"/>
<path d="M249.9 121.3C249.9 124.7 249.8 128 249.5 131.3C246.9 131.1 244.4 131 241.7 131C204.4 131 171.9 152 155.5 182.8C139.4 175.3 121.4 171.1 102.5 171.1C76.4 171.1 52.1 179 31.9 192.6C17.2 172.6 8.5 147.9 8.5 121.2C8.5 54.5 62.5 0.5 129.2 0.5C195.9 0.6 249.9 54.6 249.9 121.3Z" fill="url(#paint2_radial_1421_4749)"/>
<defs>
<radialGradient id="paint0_radial_1421_4749" cx="0" cy="0" r="1" gradientUnits="userSpaceOnUse" gradientTransform="translate(175.434 267.328) scale(135.003 135.003)">
<stop offset="0.033249" stop-color="#F6C180"/>
<stop offset="0.9182" stop-color="#E08139"/>
</radialGradient>
<radialGradient id="paint1_radial_1421_4749" cx="0" cy="0" r="1" gradientUnits="userSpaceOnUse" gradientTransform="translate(39.1268 346.459) scale(166.088 166.088)">
<stop offset="0.033249" stop-color="#5C94B6"/>
<stop offset="0.9182" stop-color="#436CAB"/>
</radialGradient>
<radialGradient id="paint2_radial_1421_4749" cx="0" cy="0" r="1" gradientUnits="userSpaceOnUse" gradientTransform="translate(140.122 94.6371) scale(150.569 150.569)">
<stop offset="0.033249" stop-color="#E72F5F"/>
<stop offset="1" stop-color="#EE708C"/>
</radialGradient>
</defs>
</svg>
