<svg width="22" height="27" viewBox="0 0 22 27" fill="none" xmlns="http://www.w3.org/2000/svg">
<path d="M16.4274 10.6294C16.3564 10.6236 16.2854 10.6242 16.208 10.6249C14.3697 10.6412 12.7857 11.7002 12.0058 13.236C11.7459 13.7479 11.5767 14.3171 11.5176 14.9175C11.4997 15.0854 11.4947 15.2532 11.4962 15.4209C11.4975 15.5693 11.5053 15.7176 11.5194 15.8594C11.675 17.3997 12.5641 18.7272 13.8351 19.4771C14.3344 19.7694 14.891 19.9774 15.4789 20.0754C15.7438 20.1182 16.0085 20.1417 16.2858 20.1392C18.9111 20.1159 21.0209 17.9685 20.9976 15.3432C20.9879 12.7887 18.9569 10.7231 16.4274 10.6294Z" fill="url(#paint0_radial_4781_3599)"/>
<path d="M10.0071 16.2282C9.97258 15.9705 9.95089 15.7062 9.94849 15.4353C9.94414 14.9451 9.99791 14.4608 10.0971 14.0019C9.23545 13.5902 8.26584 13.3666 7.24669 13.3756C5.98242 13.3868 4.8116 13.752 3.81728 14.3801C1.96336 15.5512 0.736725 17.6263 0.757523 19.9742C0.789521 23.5864 3.74398 26.4954 7.36262 26.4633C10.5362 26.4352 13.1608 24.1542 13.7341 21.1495C11.7655 20.296 10.3106 18.4446 10.0071 16.2282Z" fill="url(#paint1_radial_4781_3599)"/>
<path d="M16.718 8.44608C16.7199 8.66539 16.7154 8.87831 16.6979 9.09134C16.5301 9.07993 16.3688 9.07491 16.1946 9.07645C13.7886 9.09776 11.7043 10.4709 10.664 12.467C9.6212 11.9924 8.45774 11.7318 7.23862 11.7426C5.55508 11.7575 3.99216 12.2809 2.69696 13.1697C1.73733 11.8881 1.16204 10.2998 1.14679 8.57756C1.10867 4.27518 4.56101 0.761137 8.86339 0.723026C13.1658 0.691365 16.6799 4.1437 16.718 8.44608Z" fill="url(#paint2_radial_4781_3599)"/>
<defs>
<radialGradient id="paint0_radial_4781_3599" cx="0" cy="0" r="1" gradientUnits="userSpaceOnUse" gradientTransform="translate(11.9978 17.9083) rotate(-0.507524) scale(8.70848 8.70848)">
<stop offset="0.033249" stop-color="#F6C180"/>
<stop offset="0.9182" stop-color="#E08139"/>
</radialGradient>
<radialGradient id="paint1_radial_4781_3599" cx="0" cy="0" r="1" gradientUnits="userSpaceOnUse" gradientTransform="translate(3.25106 23.091) rotate(-0.507524) scale(10.7137 10.7136)">
<stop offset="0.033249" stop-color="#5C94B6"/>
<stop offset="0.9182" stop-color="#436CAB"/>
</radialGradient>
<radialGradient id="paint2_radial_4781_3599" cx="0" cy="0" r="1" gradientUnits="userSpaceOnUse" gradientTransform="translate(9.62167 6.78895) rotate(-0.507524) scale(9.71258)">
<stop offset="0.033249" stop-color="#E72F5F"/>
<stop offset="1" stop-color="#EE708C"/>
</radialGradient>
</defs>
</svg>
