<svg width="91" height="91" viewBox="0 0 91 91" fill="none" xmlns="http://www.w3.org/2000/svg">
<g filter="url(#filter0_di_5071_4165)">
<circle cx="45.6851" cy="39.6851" r="39.6851" fill="#245FFF"/>
</g>
<g clip-path="url(#clip0_5071_4165)">
<path d="M46 47.8759C44.123 47.8774 42.2749 47.4139 40.6208 46.5267C38.9668 45.6395 37.5583 44.3563 36.5214 42.7917L39.2286 40.9922C39.9699 42.1095 40.9761 43.026 42.1576 43.66C43.3391 44.294 44.6591 44.6258 46 44.6258C47.3408 44.6258 48.6609 44.294 49.8423 43.66C51.0238 43.026 52.0301 42.1095 52.7714 40.9922L55.4786 42.7917C54.4417 44.3563 53.0332 45.6395 51.3792 46.5267C49.7251 47.4139 47.877 47.8774 46 47.8759Z" fill="white"/>
<path d="M52.5 30.0002C51.8572 30.0002 51.2289 30.1908 50.6944 30.5479C50.1599 30.905 49.7434 31.4126 49.4974 32.0064C49.2514 32.6003 49.187 33.2538 49.3124 33.8842C49.4379 34.5146 49.7474 35.0937 50.2019 35.5483C50.6564 36.0028 51.2355 36.3123 51.866 36.4377C52.4964 36.5631 53.1499 36.4987 53.7437 36.2528C54.3376 36.0068 54.8452 35.5902 55.2023 35.0558C55.5594 34.5213 55.75 33.8929 55.75 33.2502C55.7542 32.8222 55.673 32.3977 55.5112 32.0015C55.3494 31.6053 55.1101 31.2453 54.8075 30.9427C54.5049 30.64 54.1449 30.4008 53.7487 30.239C53.3525 30.0771 52.928 29.9959 52.5 30.0002Z" fill="white"/>
<path d="M39.5 30.0002C38.8572 30.0002 38.2289 30.1908 37.6944 30.5479C37.1599 30.905 36.7434 31.4126 36.4974 32.0064C36.2514 32.6003 36.187 33.2538 36.3124 33.8842C36.4379 34.5146 36.7474 35.0937 37.2019 35.5483C37.6564 36.0028 38.2355 36.3123 38.866 36.4377C39.4964 36.5631 40.1499 36.4987 40.7437 36.2528C41.3376 36.0068 41.8452 35.5902 42.2023 35.0558C42.5594 34.5213 42.75 33.8929 42.75 33.2502C42.7542 32.8222 42.673 32.3977 42.5112 32.0015C42.3494 31.6053 42.1101 31.2453 41.8075 30.9427C41.5049 30.64 41.1449 30.4008 40.7487 30.239C40.3525 30.0771 39.928 29.9959 39.5 30.0002Z" fill="white"/>
<path d="M48.8207 65.75L46 64.125L52.5 52.75H62.25C62.677 52.7507 63.0999 52.6672 63.4946 52.5041C63.8892 52.341 64.2478 52.1017 64.5497 51.7997C64.8517 51.4978 65.091 51.1392 65.2541 50.7446C65.4172 50.3499 65.5007 49.927 65.5 49.5V26.75C65.5007 26.323 65.4172 25.9001 65.2541 25.5054C65.091 25.1108 64.8517 24.7522 64.5497 24.4503C64.2478 24.1483 63.8892 23.909 63.4946 23.7459C63.0999 23.5828 62.677 23.4993 62.25 23.5H29.75C29.323 23.4993 28.9001 23.5828 28.5054 23.7459C28.1108 23.909 27.7522 24.1483 27.4503 24.4503C27.1483 24.7522 26.909 25.1108 26.7459 25.5054C26.5828 25.9001 26.4993 26.323 26.5 26.75V49.5C26.4993 49.927 26.5828 50.3499 26.7459 50.7446C26.909 51.1392 27.1483 51.4978 27.4503 51.7997C27.7522 52.1017 28.1108 52.341 28.5054 52.5041C28.9001 52.6672 29.323 52.7507 29.75 52.75H44.375V56H29.75C28.8964 56.0001 28.0511 55.8321 27.2624 55.5055C26.4737 55.1789 25.7571 54.7001 25.1535 54.0965C24.5499 53.4929 24.0711 52.7763 23.7445 51.9876C23.4179 51.1989 23.2499 50.3536 23.25 49.5V26.75C23.2497 25.8963 23.4177 25.051 23.7443 24.2623C24.0708 23.4735 24.5496 22.7569 25.1532 22.1532C25.7569 21.5496 26.4735 21.0708 27.2623 20.7443C28.051 20.4177 28.8963 20.2497 29.75 20.25H62.25C63.1037 20.2497 63.949 20.4177 64.7377 20.7443C65.5265 21.0708 66.2431 21.5496 66.8468 22.1532C67.4504 22.7569 67.9292 23.4735 68.2557 24.2623C68.5823 25.051 68.7503 25.8963 68.75 26.75V49.5C68.7501 50.3536 68.5821 51.1989 68.2555 51.9876C67.9289 52.7763 67.4501 53.4929 66.8465 54.0965C66.2429 54.7001 65.5263 55.1789 64.7376 55.5055C63.9489 55.8321 63.1036 56.0001 62.25 56H54.3925L48.8207 65.75Z" fill="white"/>
</g>
<defs>
<filter id="filter0_di_5071_4165" x="0.644038" y="0" width="108.828" height="90.083" filterUnits="userSpaceOnUse" color-interpolation-filters="sRGB">
<feFlood flood-opacity="0" result="BackgroundImageFix"/>
<feColorMatrix in="SourceAlpha" type="matrix" values="0 0 0 0 0 0 0 0 0 0 0 0 0 0 0 0 0 0 127 0" result="hardAlpha"/>
<feOffset dy="5.35596"/>
<feGaussianBlur stdDeviation="2.67798"/>
<feComposite in2="hardAlpha" operator="out"/>
<feColorMatrix type="matrix" values="0 0 0 0 0 0 0 0 0 0 0 0 0 0 0 0 0 0 0.15 0"/>
<feBlend mode="normal" in2="BackgroundImageFix" result="effect1_dropShadow_5071_4165"/>
<feBlend mode="normal" in="SourceGraphic" in2="effect1_dropShadow_5071_4165" result="shape"/>
<feColorMatrix in="SourceAlpha" type="matrix" values="0 0 0 0 0 0 0 0 0 0 0 0 0 0 0 0 0 0 127 0" result="hardAlpha"/>
<feMorphology radius="29.4578" operator="dilate" in="SourceAlpha" result="effect2_innerShadow_5071_4165"/>
<feOffset dx="53.5596" dy="6.69495"/>
<feGaussianBlur stdDeviation="26.7798"/>
<feComposite in2="hardAlpha" operator="arithmetic" k2="-1" k3="1"/>
<feColorMatrix type="matrix" values="0 0 0 0 0.0352941 0 0 0 0 0.0784314 0 0 0 0 0.196078 0 0 0 0.08 0"/>
<feBlend mode="normal" in2="shape" result="effect2_innerShadow_5071_4165"/>
</filter>
<clipPath id="clip0_5071_4165">
<rect width="52" height="52" fill="white" transform="translate(20 17)"/>
</clipPath>
</defs>
</svg>
